<?xml version="1.0" encoding="utf-8"?>
<!-- Generator: Adobe Illustrator 15.0.0, SVG Export Plug-In . SVG Version: 6.00 Build 0)  -->
<!DOCTYPE svg PUBLIC "-//W3C//DTD SVG 1.1//EN" "http://www.w3.org/Graphics/SVG/1.1/DTD/svg11.dtd">
<svg version="1.1" id="Layer" xmlns="http://www.w3.org/2000/svg" xmlns:xlink="http://www.w3.org/1999/xlink" x="0px" y="0px"
	 width="530px" height="298px" viewBox="0 0 530 298" enable-background="new 0 0 530 298" xml:space="preserve">
<path d="M5,290.6V6.6h109.2c23.463,0,44.131,3.737,62,11.2c17.862,7.469,32.8,17.6,44.8,30.4c12,12.8,21.063,27.8,27.2,45
	c6.131,17.2,9.199,35.538,9.199,55c0,21.601-3.398,41.138-10.199,58.601c-6.801,17.469-16.469,32.398-29,44.799
	c-12.537,12.4-27.6,22-45.2,28.801c-17.601,6.8-37.2,10.199-58.8,10.199H5 M83,222.6h31.2c10.131,0,19.199-1.86,27.199-5.6
	c8-3.73,14.732-8.932,20.201-15.6c5.462-6.662,9.6-14.531,12.399-23.601c2.8-9.062,4.2-18.932,4.2-29.601
	c0-10.931-1.469-20.931-4.4-30c-2.938-9.062-7.137-16.8-12.6-23.2C155.731,88.6,149,83.6,141,80s-16.938-5.4-26.8-5.4H83V222.6"/>
<path d="M524.599,227c-4,10.4-10.069,19.738-18.2,28c-8.138,8.27-17.4,15.199-27.8,20.801c-10.399,5.6-21.469,9.867-33.2,12.799
	c-11.736,2.933-23.199,4.4-34.4,4.4c-19.736,0-37.867-4.199-54.398-12.6c-16.539-8.4-30.738-19.531-42.602-33.4
	c-11.867-13.863-21.137-29.6-27.799-47.199c-6.67-17.601-10-35.463-10-53.601c0-17.332,3.062-34.4,9.199-51.2
	c6.131-16.8,15.131-31.862,27-45.2c11.863-13.332,26.264-24.131,43.201-32.4C372.529,9.138,391.798,5,413.398,5
	c25.332,0,47.463,5.669,66.399,17c18.933,11.337,32.933,26.337,42,45l-59.6,42.4c-2.4-6.931-5.537-12.662-9.4-17.2
	c-3.869-4.531-8.067-8.131-12.6-10.8c-4.537-2.662-9.338-4.531-14.4-5.6c-5.067-1.062-9.738-1.6-14-1.6
	c-9.869,0-18.338,2.2-25.399,6.6c-7.068,4.4-12.938,10.137-17.601,17.2c-4.668,7.069-8.067,15.069-10.198,24
	c-2.14,8.938-3.201,17.8-3.201,26.6c0,9.869,1.264,19.337,3.801,28.4c2.531,9.068,6.262,17.068,11.199,24
	c4.932,6.938,10.932,12.469,18,16.6c7.062,4.139,15.131,6.201,24.2,6.201c4.531,0,9.199-0.602,14-1.801
	c4.8-1.199,9.398-3.199,13.8-6c4.399-2.8,8.399-6.4,12-10.8c3.6-4.4,6.463-9.8,8.6-16.2L524.599,227"/>
</svg>
