<?xml version="1.0" encoding="utf-8"?>
<!-- Generator: Adobe Illustrator 15.0.0, SVG Export Plug-In . SVG Version: 6.00 Build 0)  -->
<!DOCTYPE svg PUBLIC "-//W3C//DTD SVG 1.1//EN" "http://www.w3.org/Graphics/SVG/1.1/DTD/svg11.dtd">
<svg version="1.1" id="Layer_1" xmlns="http://www.w3.org/2000/svg" xmlns:xlink="http://www.w3.org/1999/xlink" x="0px" y="0px"
	 width="800px" height="104px" viewBox="0 0 800 104" enable-background="new 0 0 800 104" xml:space="preserve">
<g>
	<path d="M-0.155,102.778V0.453h39.344c8.454,0,15.9,1.349,22.338,4.037c6.436,2.691,11.818,6.342,16.142,10.953
		c4.324,4.612,7.589,10.017,9.8,16.213c2.209,6.198,3.315,12.805,3.315,19.816c0,7.783-1.225,14.823-3.676,21.114
		c-2.45,6.294-5.934,11.674-10.449,16.141c-4.517,4.469-9.944,7.927-16.285,10.378c-6.341,2.449-13.403,3.674-21.186,3.674H-0.155z
		 M62.249,51.472c0-3.938-0.529-7.541-1.585-10.809c-1.059-3.265-2.571-6.052-4.54-8.358c-1.971-2.307-4.396-4.108-7.278-5.404
		c-2.882-1.296-6.103-1.947-9.656-1.947H27.948v53.324h11.241c3.65,0,6.918-0.67,9.8-2.017c2.882-1.344,5.308-3.219,7.278-5.619
		c1.968-2.401,3.459-5.236,4.468-8.504C61.744,58.872,62.249,55.317,62.249,51.472z"/>
	<path d="M89.489,102.778L127.681,0.453h22.771l38.048,102.325H158.81l-6.197-20.032h-27.239l-6.052,20.032H89.489z M139.065,29.711
		l-9.512,34.3h18.592L139.065,29.711z"/>
	<path d="M202.189,0.453l20.031,67.016l19.745-67.016h29.544l-37.615,102.325h-23.348L172.5,0.453H202.189z"/>
	<path d="M279.146,102.778V0.453h28.104v102.325H279.146z"/>
	<path d="M324.832,102.778V0.453h39.345c8.453,0,15.901,1.349,22.338,4.037c6.435,2.691,11.816,6.342,16.14,10.953
		c4.323,4.612,7.589,10.017,9.801,16.213c2.21,6.198,3.316,12.805,3.316,19.816c0,7.783-1.228,14.823-3.677,21.114
		c-2.448,6.294-5.934,11.674-10.448,16.141c-4.518,4.469-9.945,7.927-16.287,10.378c-6.339,2.449-13.401,3.674-21.184,3.674H324.832
		z M387.235,51.472c0-3.938-0.529-7.541-1.584-10.809c-1.059-3.265-2.573-6.052-4.541-8.358c-1.97-2.307-4.396-4.108-7.279-5.404
		c-2.882-1.296-6.103-1.947-9.655-1.947h-11.242v53.324h11.242c3.65,0,6.918-0.67,9.801-2.017c2.883-1.344,5.306-3.219,7.276-5.619
		c1.968-2.401,3.459-5.236,4.467-8.504C386.732,58.872,387.235,55.317,387.235,51.472z"/>
	<path d="M454.969,50.751c0-6.243,1.104-12.394,3.316-18.447c2.209-6.053,5.452-11.48,9.728-16.285
		c4.273-4.804,9.461-8.695,15.563-11.673s13.044-4.468,20.827-4.468c9.125,0,17.1,2.042,23.923,6.125
		c6.82,4.085,11.864,9.49,15.133,16.213l-21.475,15.277c-0.864-2.498-1.996-4.563-3.386-6.198c-1.394-1.632-2.908-2.93-4.541-3.89
		c-1.635-0.96-3.363-1.632-5.188-2.018c-1.827-0.383-3.507-0.577-5.044-0.577c-3.556,0-6.606,0.794-9.151,2.378
		c-2.547,1.585-4.661,3.652-6.342,6.197c-1.684,2.546-2.907,5.428-3.676,8.647c-0.769,3.22-1.151,6.414-1.151,9.583
		c0,3.556,0.453,6.968,1.368,10.233c0.912,3.267,2.257,6.149,4.036,8.647c1.776,2.5,3.938,4.492,6.485,5.98
		c2.545,1.491,5.452,2.234,8.718,2.234c1.633,0,3.315-0.217,5.044-0.648c1.731-0.432,3.389-1.152,4.974-2.162
		c1.585-1.009,3.026-2.307,4.324-3.892c1.297-1.584,2.327-3.529,3.099-5.836l22.913,13.691c-1.441,3.748-3.626,7.111-6.556,10.088
		c-2.934,2.979-6.269,5.477-10.019,7.495c-3.746,2.018-7.735,3.555-11.96,4.61c-4.23,1.057-8.36,1.586-12.394,1.586
		c-7.113,0-13.646-1.513-19.603-4.539c-5.956-3.027-11.073-7.037-15.347-12.034c-4.278-4.995-7.617-10.664-10.018-17.006
		C456.171,63.723,454.969,57.288,454.969,50.751z"/>
	<path d="M645.496,0.453v102.325h-28.103V62.715h-34.302v40.063h-28.104V0.453h28.104v37.761h34.302V0.453H645.496z"/>
	<path d="M663.078,102.778V0.453h28.104v102.325H663.078z"/>
	<path d="M736.863,52.481v50.297H708.76V0.453h21.908l41.074,52.028V0.453h28.103v102.325h-22.338L736.863,52.481z"/>
</g>
</svg>
