<svg xmlns="http://www.w3.org/2000/svg" width="530" height="298" viewBox="0 0 530 298"><path d="M5 290.6V6.6h109.2c23.463 0 44.13 3.737 62 11.2 17.862 7.47 32.8 17.6 44.8 30.4 12 12.8 21.063 27.8 27.2 45 6.13 17.2 9.2 35.538 9.2 55 0 21.6-3.4 41.138-10.2 58.6-6.8 17.47-16.47 32.4-29 44.8-12.537 12.4-27.6 22-45.2 28.8-17.6 6.8-37.2 10.2-58.8 10.2H5m78-68h31.2c10.13 0 19.2-1.86 27.2-5.6 8-3.73 14.73-8.932 20.2-15.6 5.462-6.662 9.6-14.53 12.4-23.6 2.8-9.063 4.2-18.933 4.2-29.602 0-10.93-1.47-20.93-4.4-30-2.94-9.062-7.138-16.8-12.6-23.2C155.73 88.6 149 83.6 141 80s-16.938-5.4-26.8-5.4H83v148M524.6 227c-4 10.4-10.07 19.738-18.2 28-8.14 8.27-17.4 15.2-27.8 20.8-10.4 5.6-21.47 9.868-33.2 12.8-11.737 2.933-23.2 4.4-34.4 4.4-19.737 0-37.868-4.2-54.4-12.6-16.538-8.4-30.737-19.53-42.6-33.4-11.868-13.863-21.138-29.6-27.8-47.2-6.67-17.6-10-35.462-10-53.6 0-17.332 3.062-34.4 9.2-51.2 6.13-16.8 15.13-31.862 27-45.2 11.862-13.332 26.263-24.13 43.2-32.4C372.53 9.138 391.798 5 413.398 5c25.332 0 47.463 5.67 66.4 17 18.932 11.337 32.932 26.337 42 45l-59.6 42.4c-2.4-6.93-5.538-12.662-9.4-17.2-3.87-4.53-8.068-8.13-12.6-10.8-4.538-2.662-9.34-4.53-14.4-5.6-5.068-1.062-9.74-1.6-14-1.6-9.87 0-18.34 2.2-25.4 6.6-7.068 4.4-12.938 10.137-17.6 17.2-4.67 7.07-8.068 15.07-10.2 24-2.14 8.938-3.2 17.8-3.2 26.6 0 9.87 1.264 19.337 3.8 28.4 2.532 9.068 6.263 17.068 11.2 24 4.932 6.938 10.932 12.47 18 16.6 7.062 4.14 15.13 6.2 24.2 6.2 4.53 0 9.2-.6 14-1.8 4.8-1.2 9.398-3.2 13.8-6 4.4-2.8 8.4-6.4 12-10.8 3.6-4.4 6.463-9.8 8.6-16.2l63.6 38"/></svg>