<svg xmlns="http://www.w3.org/2000/svg" width="800" height="104" viewBox="0 0 800 104"><path d="M-.155 102.778V.453H39.19c8.453 0 15.9 1.35 22.337 4.037 6.436 2.69 11.818 6.342 16.142 10.953 4.323 4.612 7.588 10.017 9.8 16.213 2.208 6.198 3.314 12.805 3.314 19.816 0 7.783-1.225 14.823-3.676 21.114-2.45 6.294-5.934 11.674-10.45 16.14-4.516 4.47-9.943 7.928-16.284 10.38-6.34 2.448-13.403 3.673-21.186 3.673H-.155zM62.25 51.472c0-3.938-.53-7.54-1.586-10.81-1.06-3.264-2.57-6.05-4.54-8.357-1.97-2.307-4.396-4.108-7.278-5.404-2.882-1.295-6.103-1.946-9.656-1.946H27.948v53.324h11.24c3.65 0 6.92-.67 9.8-2.017 2.883-1.343 5.31-3.218 7.28-5.618 1.967-2.4 3.458-5.236 4.467-8.504 1.01-3.266 1.514-6.82 1.514-10.666zM89.49 102.778L127.68.453h22.772L188.5 102.778h-29.69l-6.197-20.032h-27.24l-6.05 20.032H89.488zm49.575-73.067l-9.512 34.3h18.592l-9.08-34.3zM202.19.453l20.03 67.016L241.965.452h29.544l-37.616 102.325h-23.348L172.5.453h29.69zM279.146 102.778V.453h28.104v102.325h-28.104zM324.832 102.778V.453h39.345c8.453 0 15.9 1.35 22.338 4.037 6.435 2.69 11.816 6.342 16.14 10.953 4.323 4.612 7.59 10.017 9.8 16.213 2.21 6.198 3.317 12.805 3.317 19.816 0 7.783-1.228 14.823-3.677 21.114-2.448 6.294-5.934 11.674-10.448 16.14-4.518 4.47-9.945 7.928-16.287 10.38-6.34 2.448-13.4 3.673-21.184 3.673h-39.344zm62.403-51.306c0-3.938-.53-7.54-1.584-10.81-1.058-3.264-2.572-6.05-4.54-8.357-1.97-2.307-4.396-4.108-7.28-5.404-2.88-1.295-6.102-1.946-9.654-1.946h-11.242v53.324h11.242c3.65 0 6.918-.67 9.8-2.017 2.884-1.343 5.307-3.218 7.277-5.618 1.968-2.4 3.46-5.236 4.467-8.504 1.012-3.266 1.515-6.82 1.515-10.666zM454.97 50.75c0-6.242 1.103-12.393 3.315-18.446 2.21-6.053 5.452-11.48 9.728-16.285 4.273-4.805 9.46-8.696 15.563-11.674S496.62-.122 504.403-.122c9.125 0 17.1 2.042 23.923 6.125 6.82 4.085 11.864 9.49 15.133 16.213l-21.476 15.277c-.864-2.498-1.996-4.563-3.386-6.198-1.394-1.632-2.908-2.93-4.54-3.89-1.636-.96-3.364-1.632-5.19-2.018-1.826-.383-3.506-.577-5.043-.577-3.556 0-6.606.794-9.15 2.378-2.548 1.585-4.662 3.652-6.343 6.197-1.684 2.546-2.907 5.428-3.676 8.647-.77 3.22-1.15 6.414-1.15 9.583 0 3.556.452 6.968 1.367 10.233.912 3.267 2.257 6.15 4.036 8.647 1.775 2.5 3.937 4.492 6.484 5.98 2.545 1.49 5.452 2.234 8.718 2.234 1.633 0 3.315-.218 5.044-.65 1.73-.43 3.39-1.15 4.974-2.16 1.585-1.01 3.026-2.308 4.324-3.893 1.297-1.584 2.327-3.53 3.1-5.836l22.912 13.692c-1.44 3.748-3.626 7.11-6.556 10.088-2.934 2.98-6.27 5.477-10.02 7.495-3.745 2.018-7.734 3.555-11.96 4.61-4.23 1.057-8.36 1.586-12.393 1.586-7.113 0-13.646-1.512-19.603-4.538-5.956-3.027-11.073-7.037-15.347-12.034-4.278-4.995-7.617-10.664-10.018-17.006-2.4-6.34-3.6-12.774-3.6-19.31zM645.496.453v102.325h-28.103V62.715H583.09v40.063h-28.103V.453h28.104v37.76h34.303V.454h28.103zM663.078 102.778V.453h28.104v102.325h-28.104zM736.863 52.48v50.298H708.76V.453h21.908l41.074 52.028V.454h28.103v102.325h-22.338L736.863 52.48z"/></svg>